# AST/ASF file generated using VICON BodyLanguage
# -----------------------------------------------
:version 1.10
:name VICON
:units
  mass 1.0
  length 0.45
  angle deg
:documentation
   .ast/.asf automatically generated from VICON data using
   VICON BodyBuilder and BodyLanguage model FoxedUp or BRILLIANT.MOD
:root
   order TX TY TZ RX RY RZ
   axis XYZ
   position 0 0 0  
   orientation 0 0 0 
:bonedata
  begin
     id 1 
     name lhipjoint
     direction 0.584852 -0.759097 0.285867 
     length 2.43633 
     axis 0 0 0  XYZ
  end
  begin
     id 2 
     name lfemur
     direction 0.34202 -0.939693 0  
     length 7.14704  
     axis 0 0 20  XYZ
    dof rx ry rz
    limits (-160.0 20.0)
           (-70.0 70.0)
           (-60.0 70.0)
  end
  begin
     id 3 
     name ltibia
     direction 0.342022 -0.939692 0   
     length 7.68483   
     axis 0 0 20   XYZ
    dof rx
    limits (-10.0 170.0)
  end
  begin
     id 4 
     name lfoot
     direction 0.0999605 -0.274639 0.956337   
     length 2.40452   
     axis -90 7.62852e-016 20   XYZ
    dof rx rz
    limits (-45.0 90.0)
           (-70.0 20.0)
  end
  begin
     id 5 
     name ltoes
     direction 1.53468e-011 -4.21881e-011 1   
     length 1.19837   
     axis -90 7.62852e-016 20   XYZ
    dof rx
    limits (-90.0 20.0)
  end
  begin
     id 6 
     name rhipjoint
     direction -0.569886 -0.769002 0.289597   
     length 2.40495  
     axis 0 0 0  XYZ 
  end
  begin
     id 7 
     name rfemur
     direction -0.34202 -0.939693 0   
     length 7.45086   
     axis 0 0 -20   XYZ
    dof rx ry rz
    limits (-160.0 20.0)
           (-70.0 70.0)
           (-70.0 60.0)
  end
  begin
     id 8 
     name rtibia
     direction -0.34202 -0.939693 0   
     length 7.76831   
     axis 0 0 -20   XYZ
    dof rx
    limits (-10.0 170.0)
 end
 begin
     id 9 
     name rfoot
     direction -0.0798572 -0.219406 0.97236   
     length 2.35911  
     axis -90 -7.62852e-016 -20   XYZ
    dof rx rz
    limits (-45.0 90.0)
           (-20.0 70.0)
  end
  begin
     id 10 
     name rtoes
     direction -1.53469e-011 -4.21728e-011 1   
     length 1.18261   
     axis -90 -7.62852e-016 -20   XYZ
    dof rx
    limits (-90.0 20.0)
  end
  begin
     id 11 
     name lowerback
     direction 0.0242088 0.999437 0.0232389   
     length 2.1561   
     axis 0 0 0   XYZ
    dof rx ry rz
    limits (-20.0 45.0)
           (-30.0 30.0)
           (-30.0 30.0)
  end
  begin
     id 12 
     name upperback
     direction -0.0356893 0.999013 -0.0264323   
     length 2.14431   
     axis 0 0 0   XYZ
    dof rx ry rz
    limits (-20.0 45.0)
           (-30.0 30.0)
           (-30.0 30.0)
  end
  begin
     id 13 
     name thorax
     direction -0.0472163 0.998194 -0.0371284   
     length 2.16169   
     axis 0 0 0   XYZ
    dof rx ry rz
    limits (-20.0 45.0)
           (-30.0 30.0)
           (-30.0 30.0)
  end
  begin
     id 14 
     name lowerneck
     direction 0.00863244 0.999921 0.00911972   
     length 1.58651   
     axis 0 0 0   XYZ
    dof rx ry rz
    limits (-20.0 45.0)
           (-30.0 30.0)
           (-30.0 30.0)
  end
  begin
     id 15 
     name upperneck
     direction 0.149523 0.979068 -0.138086   
     length 1.57486   
     axis 0 0 0   XYZ
    dof rx ry rz
    limits (-20.0 45.0)
           (-30.0 30.0)
           (-30.0 30.0)
  end
  begin
     id 16
     name head
     direction 0.0445219 0.997708 -0.0509576  
     length 1.6019  
     axis 0 0 0   XYZ
    dof rx ry rz
    limits (-20.0 45.0)
           (-30.0 30.0)
           (-30.0 30.0)
  end
  begin
     id 17 
     name lclavicle
     direction 0.911271 0.381667 -0.154644  
     length 3.80848  
     axis 0 0 0   XYZ
    dof ry rz
    limits (-20.0 10.0)
           (0.0 20.0)
  end
  begin
     id 18 
     name lhumerus
     direction 1 -4.49003e-011 2.1308e-027   
     length 5.19069   
     axis 180 -30 -90   XYZ
    dof rx ry rz
    limits (-60.0 90.0)
           (-90.0 90.0)
           (-90.0 90.0)
  end
  begin
     id 19
     name lradius
     direction 1 -4.48914e-011 4.01554e-027   
     length 3.30016   
     axis 180 -30 -90   XYZ
    dof rx
    limits (-10.0 170.0)
  end
  begin
     id 20
     name lwrist
     direction 1 -4.49003e-011 1.1934e-026   
     length 1.65008   
     axis -8.46377e-015 90 90   XYZ
    dof ry
    limits (-180.0 0.0)
 end
  begin
     id 21 
     name lhand
     direction 1 -4.49034e-011 2.38659e-026   
     length 0.707698   
     axis -1.52313e-014 90 90   XYZ
    dof rx rz
    limits (-90.0 90.0)
           (-45.0 45.0)
  end
  begin
     id 22 
     name lfingers
     direction 1 -4.48691e-011 4.77775e-026   
     length 0.570564   
     axis -3.04623e-014 90 90   XYZ
    dof rx
    limits (0.0 90.0)
  end
  begin
     id 23
     name lthumb
     direction 0.707107 -6.34832e-011 0.707107   
     length 0.819219   
     axis -90 45 -1.62303e-014   XYZ
    dof rx rz
    limits (-45.0 45.0)
           (-45.0 45.0)
  end
  begin
     id 24 
     name rclavicle
     direction -0.815579 0.573708 -0.0754329   
     length 3.54371  
     axis 0 0 0   XYZ 
    dof ry rz
    limits (-10.0 20.0)
           (-20.0 0.0)
  end
  begin
     id 25 
     name rhumerus
     direction -1 -4.48956e-011 3.05351e-028  
     length 5.23924   
     axis 180 30 90   XYZ
    dof rx ry rz
    limits (-90.0 60.0)
           (-90.0 90.0)
           (-90.0 90.0)
  end
  begin
     id 26 
     name rradius
     direction -1 -4.49013e-011 3.53849e-027   
     length 3.32953   
     axis 180 30 90   XYZ
    dof rx
    limits (-10.0 170.0)
  end
  begin
     id 27 
     name rwrist
     direction -1 -4.48901e-011 1.19374e-026   
     length 1.66477   
     axis -8.46377e-015 -90 -90   XYZ
    dof ry
    limits (-180.0 0.0)
  end
  begin
     id 28
     name rhand
     direction -1 -4.48877e-011 2.38764e-026   
     length 0.607414   
     axis -1.52313e-014 -90 -90   XYZ
    dof rx rz
    limits (-90.0 90.0)
           (-45.0 45.0)
  end
  begin
     id 29
     name rfingers
     direction -1 -4.48882e-011 4.77521e-026   
     length 0.489712   
     axis -3.04623e-014 -90 -90   XYZ
    dof rx
    limits (0.0 90.0)
  end
  begin
     id 30
     name rthumb
     direction -0.707107 -6.34974e-011 0.707107   
     length 0.703132   
     axis -90 -45 1.62303e-014   XYZ
    dof rx rz
    limits (-45.0 45.0)
           (-45.0 45.0)
  end
:hierarchy
  begin
    root lhipjoint rhipjoint lowerback
    lhipjoint lfemur
    lfemur ltibia
    ltibia lfoot
    lfoot ltoes
    rhipjoint rfemur
    rfemur rtibia
    rtibia rfoot
    rfoot rtoes
    lowerback upperback
    upperback thorax
    thorax lowerneck lclavicle rclavicle
    lowerneck upperneck
    upperneck head
    lclavicle lhumerus
    lhumerus lradius
    lradius lwrist
    lwrist lhand lthumb
    lhand lfingers
    rclavicle rhumerus
    rhumerus rradius
    rradius rwrist
    rwrist rhand rthumb
    rhand rfingers
  end

#!OML:ASF E:\VariousWalksJay\Project 1\Capture day 1\Session 1\Actor2.ASF
:FULLY-SPECIFIED
:DEGREES
314
root 7.24261 16.8269 11.9684 -14.0317 -24.0699 9.34913
lowerback 20.6208 -3.89561 9.17301
upperback 12.8776 -3.84184 1.03918
thorax 2.15414 -1.54612 -3.33271
lowerneck 3.61719 -6.35786 -6.10919
upperneck -9.95922 -8.71704 3.60295
head -3.43479 -4.28466 2.58877
rclavicle 2.06736e-014 -8.5875e-014
rhumerus -73.0618 29.8838 -125.791
rradius 67.3433
rwrist 27.2594
rhand -11.6129 4.54822
rfingers 7.12502
rthumb 14.43 -24.9301
lclavicle 2.06736e-014 -8.5875e-014
lhumerus -70.2491 -32.73 139.101
lradius 61.4751
lwrist -3.6338
lhand 13.7017 -8.76405
lfingers 7.12502
lthumb 38.6282 16.8615
rfemur -1.11744 -8.01223 8.53482
rtibia 54.0828
rfoot -23.6939 -17.7012
rtoes -19.565
lfemur -63.5246 10.0684 -23.8155
ltibia -1.27222e-014
lfoot -16.1963 13.1052
ltoes -20.1108
315
root 7.26037 16.9766 12.0827 -14.5723 -24.0581 10.5124
lowerback 20.9799 -3.83418 8.35907
upperback 13.0063 -3.87112 0.71556
thorax 2.11754 -1.59449 -3.20775
lowerneck 3.88248 -6.33565 -6.08034
upperneck -10.2041 -8.71382 3.5105
head -3.57712 -4.27719 2.57758
rclavicle 2.38542e-015 -6.83819e-014
rhumerus -72.6477 30.0441 -125.547
rradius 67.2858
rwrist 28.5684
rhand -11.7111 4.32337
rfingers 7.12502
rthumb 14.3354 -25.1617
lclavicle 2.38542e-015 -6.83819e-014
lhumerus -69.9576 -32.7021 138.695
lradius 61.3528
lwrist -4.7424
lhand 13.648 -9.0841
lfingers 7.12502
lthumb 38.5776 16.5556
rfemur -1.4346 -7.57501 7.29337
rtibia 54.4449
rfoot -21.0728 -17.6797
rtoes -18.3576
lfemur -64.7046 10.4446 -24.8553
ltibia -9.54166e-015
lfoot -16.4002 12.6349
ltoes -20.2965
316
root 7.27881 17.1201 12.1936 -15.0524 -24.0089 11.6278
lowerback 21.4011 -3.78601 7.54614
upperback 13.1299 -3.91699 0.411384
thorax 2.04781 -1.65358 -3.05464
lowerneck 4.05133 -6.32088 -6.0365
upperneck -10.438 -8.71478 3.41477
head -3.69828 -4.27222 2.55718
rclavicle 1.35174e-014 -4.45278e-014
rhumerus -72.2063 30.1524 -125.23
rradius 67.241
rwrist 30.1065
rhand -11.8004 4.10479
rfingers 7.12502
rthumb 14.2493 -25.3864
lclavicle 1.35174e-014 -4.45278e-014
lhumerus -69.6533 -32.7278 138.25
lradius 61.2325
lwrist -6.27404
lhand 13.5385 -9.43416
lfingers 7.12502
lthumb 38.4742 16.2345
rfemur -1.99178 -7.20534 6.10959
rtibia 54.9774
rfoot -18.5268 -17.1755
rtoes -17.2527
lfemur -65.8252 10.7333 -25.8928
ltibia -4.29375e-014
lfoot -16.5777 12.1414
ltoes -20.4825
317
root 7.29656 17.2558 12.3017 -15.4861 -23.9154 12.6804
lowerback 21.8795 -3.74873 6.74957
upperback 13.2527 -3.97622 0.128642
thorax 1.95307 -1.7202 -2.88091
lowerneck 4.15114 -6.31273 -5.97986
upperneck -10.674 -8.71909 3.33066
head -3.80717 -4.26986 2.53491
rclavicle -8.74653e-015 -9.54166e-015
rhumerus -71.7546 30.174 -124.859
rradius 67.2092
rwrist 31.7539
rhand -11.8681 3.92076
rfingers 7.12502
rthumb 14.1841 -25.575
lclavicle -8.74653e-015 -9.54166e-015
lhumerus -69.3806 -32.8284 137.806
lradius 61.1401
lwrist -8.12101
lhand 13.3619 -9.77237
lfingers 7.12502
lthumb 38.3075 15.9425
rfemur -2.70997 -6.89857 5.01529
rtibia 55.5539
rfoot -16.2585 -16.1497
rtoes -16.4647
lfemur -66.8605 10.9318 -26.9074
ltibia 2.8625e-014
lfoot -16.7499 11.6557
ltoes -20.7065
318
root 7.31253 17.3819 12.4073 -15.8663 -23.7899 13.6273
lowerback 22.4149 -3.72051 6.00994
upperback 13.3718 -4.04022 -0.12074
thorax 1.83123 -1.78786 -2.69829
lowerneck 4.22232 -6.31022 -5.92353
upperneck -10.9342 -8.72705 3.27686
head -3.91808 -4.27037 2.52245
rclavicle -3.97569e-015 -3.18055e-014
rhumerus -71.3074 30.0922 -124.46
rradius 67.1804
rwrist 33.3571
rhand -11.9071 3.79955
rfingers 7.12502
rthumb 14.1465 -25.6988
lclavicle -3.97569e-015 -3.18055e-014
lhumerus -69.18 -33.0109 137.408
lradius 61.0973
lwrist -10.1163
lhand 13.1241 -10.0555
lfingers 7.12502
lthumb 38.083 15.7211
rfemur -3.5296 -6.64301 4.08541
rtibia 56.0432
rfoot -14.4781 -14.6946
rtoes -16.0821
lfemur -67.8056 11.0559 -27.8474
ltibia -2.38542e-014
lfoot -16.9179 11.1912
ltoes -20.846
319
root 7.32626 17.4979 12.51 -16.1934 -23.645 14.446
lowerback 22.9989 -3.70034 5.35427
upperback 13.4866 -4.10363 -0.335042
thorax 1.68496 -1.85199 -2.52177
lowerneck 4.30267 -6.30783 -5.86092
upperneck -11.2346 -8.7327 3.25504
head -4.04464 -4.27089 2.52184
rclavicle -3.97569e-015 1.11319e-014
rhumerus -70.883 29.9065 -124.072
rradius 67.1463
rwrist 34.7562
rhand -11.9139 3.76416
rfingers 7.12502
rthumb 14.14 -25.7347
lclavicle -3.97569e-015 1.11319e-014
lhumerus -69.0901 -33.2778 137.106
lradius 61.1173
lwrist -12.0256
lhand 12.8389 -10.2373
lfingers 7.12502
lthumb 37.8137 15.6124
rfemur -4.39372 -6.42788 3.37173
rtibia 56.311
rfoot -13.3165 -13.0348
rtoes -16.0552
lfemur -68.6439 11.1199 -28.6829
ltibia 1.90833e-014
lfoot -17.0603 10.8052
ltoes -20.9958
320
root 7.33703 17.6024 12.6091 -16.4073 -23.5209 15.0593
lowerback 23.6058 -3.68877 4.85026
upperback 13.5846 -4.15425 -0.495843
thorax 1.51154 -1.90321 -2.37333
lowerneck 4.41044 -6.30181 -5.79237
upperneck -11.5752 -8.73085 3.27223
head -4.19079 -4.2692 2.53643
rclavicle -9.38264e-014 7.15625e-014
rhumerus -70.4949 29.6379 -123.739
rradius 67.0842
rwrist 35.849
rhand -11.8955 3.82702
rfingers 7.12502
rthumb 14.1577 -25.6706
lclavicle -9.38264e-014 7.15625e-014
lhumerus -69.1266 -33.6123 136.933
lradius 61.194
lwrist -13.6141
lhand 12.5361 -10.2834
lfingers 7.12502
lthumb 37.5276 15.6428
rfemur -5.3086 -6.23437 3.00506
rtibia 56.253
rfoot -12.7841 -11.4883
rtoes -16.3311
lfemur -69.4206 11.154 -29.3313
ltibia 1.11319e-014
lfoot -17.1559 10.5212
ltoes -21.1179
321
root 7.34485 17.6943 12.7051 -16.55 -23.4041 15.4809
lowerback 24.2421 -3.68884 4.48203
upperback 13.6721 -4.19649 -0.605566
thorax 1.31419 -1.94438 -2.24584
lowerneck 4.55485 -6.29018 -5.72018
upperneck -11.9354 -8.71981 3.31829
head -4.35161 -4.26427 2.5629
rclavicle 2.38542e-014 -3.49861e-014
rhumerus -70.1604 29.3142 -123.497
rradius 66.9778
rwrist 36.5471
rhand -11.8557 3.98878
rfingers 7.12502
rthumb 14.1961 -25.5061
lclavicle 2.38542e-014 -3.49861e-014
lhumerus -69.2977 -33.9872 136.917
lradius 61.3045
lwrist -14.6934
lhand 12.2479 -10.1919
lfingers 7.12502
lthumb 37.2552 15.8062
rfemur -6.19136 -6.08148 2.96471
rtibia 55.7835
rfoot -12.8149 -10.2918
rtoes -16.8202
lfemur -70.0998 11.1602 -29.7972
ltibia -1.90833e-014
lfoot -17.199 10.3614
ltoes -21.2215
322
root 7.34962 17.7717 12.7979 -16.5457 -23.322 15.6394
lowerback 24.8631 -3.70595 4.31123
upperback 13.7324 -4.22292 -0.644858
thorax 1.09338 -1.96917 -2.15667
lowerneck 4.67617 -6.27465 -5.64202
upperneck -12.6329 -8.66905 3.54093
head -4.14197 -4.26541 2.39826
rclavicle 6.20208e-014 6.36111e-015
rhumerus -69.8827 28.9651 -123.366
rradius 66.8112
rwrist 36.8152
rhand -11.8012 4.24581
rfingers 7.12502
rthumb 14.2485 -25.2454
lclavicle 6.20208e-014 6.36111e-015
lhumerus -69.5778 -34.3645 137.04
lradius 61.4104
lwrist -15.1582
lhand 12.0017 -9.98643
lfingers 7.12502
lthumb 37.0223 16.0723
rfemur -7.08393 -5.96914 3.34698
rtibia 54.8689
rfoot -13.2984 -9.6107
rtoes -17.4502
lfemur -70.751 11.151 -30.0126
ltibia 9.54166e-015
lfoot -17.1567 10.3245
ltoes -21.2744
323
root 7.35268 17.8357 12.891 -16.5215 -23.2462 15.6768
lowerback 25.487 -3.73224 4.2336
upperback 13.7899 -4.24264 -0.655781
thorax 0.86885 -1.98621 -2.09057
lowerneck 4.83524 -6.25447 -5.54611
upperneck -12.9522 -8.63922 3.60345
head -4.26807 -4.25545 2.4172
rclavicle 4.13472e-014 -6.36111e-015
rhumerus -69.6614 28.6205 -123.35
rradius 66.5821
rwrist 36.671
rhand -11.7344 4.58069
rfingers 7.12502
rthumb 14.313 -24.906
lclavicle 4.13472e-014 -6.36111e-015
lhumerus -69.9269 -34.7066 137.268
lradius 61.4821
lwrist -14.9985
lhand 11.827 -9.69513
lfingers 7.12502
lthumb 36.8571 16.4062
rfemur -7.87331 -5.9296 3.93813
rtibia 53.503
rfoot -14.1179 -9.36817
rtoes -18.1486
lfemur -71.2835 11.137 -30.1024
ltibia -6.83819e-014
lfoot -17.0682 10.373
ltoes -21.3013
324
root 7.35397 17.8847 12.9853 -16.4814 -23.1791 15.5937
lowerback 26.109 -3.76671 4.24356
upperback 13.8415 -4.25355 -0.634774
thorax 0.639639 -1.9952 -2.04131
lowerneck 4.96931 -6.23498 -5.45285
upperneck -13.1914 -8.60783 3.65971
head -4.366 -4.24529 2.43118
rclavicle -3.65764e-014 -3.18055e-015
rhumerus -69.5016 28.2961 -123.438
rradius 66.2985
rwrist 36.1677
rhand -11.6575 4.96824
rfingers 7.12502
rthumb 14.3871 -24.5132
lclavicle -3.65764e-014 -3.18055e-015
lhumerus -70.3056 -34.9708 137.543
lradius 61.5071
lwrist -14.3115
lhand 11.7454 -9.35586
lfingers 7.12502
lthumb 36.7799 16.7652
rfemur -8.55566 -5.98601 4.71868
rtibia 51.7439
rfoot -15.1638 -9.49226
rtoes -18.96
lfemur -71.7055 11.1284 -30.0625
ltibia 4.29375e-014
lfoot -16.9467 10.4517
ltoes -21.3273
325
root 7.35383 17.9192 13.0829 -16.4841 -23.1004 15.4866
lowerback 26.7234 -3.7992 4.26175
upperback 13.893 -4.25983 -0.605866
thorax 0.41683 -2.00154 -1.98974
lowerneck 5.07652 -6.2226 -5.3722
upperneck -13.3492 -8.58446 3.71201
head -4.43397 -4.23923 2.44265
rclavicle -1.74931e-014 -9.54166e-015
rhumerus -69.3986 27.9923 -123.606
rradius 65.9767
rwrist 35.3995
rhand -11.5679 5.38385
rfingers 7.12502
rthumb 14.4734 -24.0914
lclavicle -1.74931e-014 -9.54166e-015
lhumerus -70.6644 -35.1149 137.795
lradius 61.4813
lwrist -13.2635
lhand 11.769 -8.98907
lfingers 7.12502
lthumb 36.8022 17.1263
rfemur -9.10535 -6.17682 5.54386
rtibia 49.6824
rfoot -16.333 -9.72093
rtoes -19.8366
lfemur -71.9876 11.1273 -29.9833
ltibia -3.49861e-014
lfoot -16.7833 10.5157
ltoes -21.2874
326
root 7.35218 17.9398 13.185 -16.5723 -22.9929 15.4128
lowerback 27.3261 -3.82472 4.24167
upperback 13.9556 -4.26693 -0.583516
thorax 0.215593 -2.00956 -1.92454
lowerneck 5.13963 -6.22419 -5.31153
upperneck -13.4301 -8.57861 3.76171
head -4.46958 -4.24161 2.45298
rclavicle -3.18055e-015 -3.18055e-014
rhumerus -69.3428 27.7031 -123.816
rradius 65.6506
rwrist 34.4711
rhand -11.4642 5.79493
rfingers 7.12502
rthumb 14.5733 -23.6731
lclavicle -3.18055e-015 -3.18055e-014
lhumerus -70.9766 -35.1324 137.976
lradius 61.4284
lwrist -12.0276
lhand 11.8875 -8.60375
lfingers 7.12502
lthumb 36.9143 17.4828
rfemur -9.52052 -6.54038 6.32709
rtibia 47.4513
rfoot -17.4685 -9.8632
rtoes -20.8702
lfemur -72.1061 11.1339 -29.9172
ltibia 3.10104e-014
lfoot -16.6087 10.51
ltoes -21.2461
327
root 7.3488 17.947 13.2914 -16.7751 -22.8743 15.4148
lowerback 27.922 -3.82742 4.14303
upperback 14.0322 -4.26561 -0.577622
thorax 0.0387946 -2.01641 -1.83617
lowerneck 5.17578 -6.24535 -5.27754
upperneck -13.463 -8.59934 3.81512
head -4.48345 -4.2566 2.46708
rclavicle -4.29375e-014 3.81667e-014
rhumerus -69.3301 27.416 -124.037
rradius 65.3522
rwrist 33.4991
rhand -11.3454 6.16655
rfingers 7.12502
rthumb 14.6878 -23.2932
lclavicle -4.29375e-014 3.81667e-014
lhumerus -71.2433 -35.0304 138.065
lradius 61.3798
lwrist -10.7468
lhand 12.0752 -8.19722
lfingers 7.12502
lthumb 37.0919 17.8434
rfemur -9.82692 -7.08301 7.02478
rtibia 45.1958
rfoot -18.4275 -9.86583
rtoes -21.9732
lfemur -72.0523 11.1782 -29.8945
ltibia -1.74931e-014
lfoot -16.4379 10.4015
ltoes -21.2557
